<svg xmlns="http://www.w3.org/2000/svg" version="1.1" xmlns:xlink="http://www.w3.org/1999/xlink" xmlns:svgjs="http://svgjs.dev/svgjs" width="1440" height="560" preserveAspectRatio="none" viewBox="0 0 1440 560"><g mask="url(&quot;#SvgjsMask1000&quot;)" fill="none"><rect width="1440" height="560" x="0" y="0" fill="#0e2a47"></rect><path d="M-73.81 386.07L-73.81 386.07" stroke="#132e65" stroke-width="1.5"></path><path d="M-73.81 386.07L-57.52 507.31" stroke="#132e65" stroke-width="1.5"></path><path d="M-73.81 386.07L40.02 517.06" stroke="#132e65" stroke-width="1.5"></path><path d="M-73.81 386.07L103.48 412.29" stroke="#132e65" stroke-width="1.5"></path><path d="M-73.81 386.07L-89.07 645.38" stroke="#132e65" stroke-width="1.5"></path><path d="M-57.52 507.31L-57.52 507.31" stroke="#132e65" stroke-width="1.5"></path><path d="M-57.52 507.31L40.02 517.06" stroke="#132e65" stroke-width="1.5"></path><path d="M-57.52 507.31L-89.07 645.38" stroke="#132e65" stroke-width="1.5"></path><path d="M-57.52 507.31L103.48 412.29" stroke="#132e65" stroke-width="1.5"></path><path d="M-57.52 507.31L203.9 521.94" stroke="#132e65" stroke-width="1.5"></path><path d="M-57.52 507.31L225.7 347.84" stroke="#132e65" stroke-width="1.5"></path><path d="M-89.07 645.38L-89.07 645.38" stroke="#132e65" stroke-width="1.5"></path><path d="M-89.07 645.38L40.02 517.06" stroke="#132e65" stroke-width="1.5"></path><path d="M-89.07 645.38L103.48 412.29" stroke="#132e65" stroke-width="1.5"></path><path d="M-89.07 645.38L203.9 521.94" stroke="#132e65" stroke-width="1.5"></path><path d="M103.48 412.29L103.48 412.29" stroke="#132e65" stroke-width="1.5"></path><path d="M103.48 412.29L40.02 517.06" stroke="#132e65" stroke-width="1.5"></path><path d="M103.48 412.29L225.7 347.84" stroke="#132e65" stroke-width="1.5"></path><path d="M103.48 412.29L203.9 521.94" stroke="#132e65" stroke-width="1.5"></path><path d="M40.02 517.06L40.02 517.06" stroke="#132e65" stroke-width="1.5"></path><path d="M225.7 347.84L225.7 347.84" stroke="#132e65" stroke-width="1.5"></path><path d="M225.7 347.84L362.02 385.34" stroke="#132e65" stroke-width="1.5"></path><path d="M225.7 347.84L203.9 521.94" stroke="#132e65" stroke-width="1.5"></path><path d="M225.7 347.84L40.02 517.06" stroke="#132e65" stroke-width="1.5"></path><path d="M203.9 521.94L203.9 521.94" stroke="#132e65" stroke-width="1.5"></path><path d="M203.9 521.94L40.02 517.06" stroke="#132e65" stroke-width="1.5"></path><path d="M203.9 521.94L237.22 694.2" stroke="#132e65" stroke-width="1.5"></path><path d="M237.22 694.2L237.22 694.2" stroke="#132e65" stroke-width="1.5"></path><path d="M237.22 694.2L373.34 704.86" stroke="#132e65" stroke-width="1.5"></path><path d="M237.22 694.2L376.52 556.14" stroke="#132e65" stroke-width="1.5"></path><path d="M237.22 694.2L40.02 517.06" stroke="#132e65" stroke-width="1.5"></path><path d="M362.02 385.34L362.02 385.34" stroke="#132e65" stroke-width="1.5"></path><path d="M362.02 385.34L492.15 360.79" stroke="#132e65" stroke-width="1.5"></path><path d="M362.02 385.34L376.52 556.14" stroke="#132e65" stroke-width="1.5"></path><path d="M362.02 385.34L203.9 521.94" stroke="#132e65" stroke-width="1.5"></path><path d="M362.02 385.34L534.03 525.31" stroke="#132e65" stroke-width="1.5"></path><path d="M376.52 556.14L376.52 556.14" stroke="#132e65" stroke-width="1.5"></path><path d="M376.52 556.14L373.34 704.86" stroke="#132e65" stroke-width="1.5"></path><path d="M376.52 556.14L534.03 525.31" stroke="#132e65" stroke-width="1.5"></path><path d="M376.52 556.14L203.9 521.94" stroke="#132e65" stroke-width="1.5"></path><path d="M373.34 704.86L373.34 704.86" stroke="#132e65" stroke-width="1.5"></path><path d="M373.34 704.86L517.44 703.18" stroke="#132e65" stroke-width="1.5"></path><path d="M492.15 360.79L492.15 360.79" stroke="#132e65" stroke-width="1.5"></path><path d="M492.15 360.79L649.54 342.14" stroke="#132e65" stroke-width="1.5"></path><path d="M492.15 360.79L534.03 525.31" stroke="#132e65" stroke-width="1.5"></path><path d="M534.03 525.31L534.03 525.31" stroke="#132e65" stroke-width="1.5"></path><path d="M534.03 525.31L686.86 546.95" stroke="#132e65" stroke-width="1.5"></path><path d="M534.03 525.31L517.44 703.18" stroke="#132e65" stroke-width="1.5"></path><path d="M517.44 703.18L517.44 703.18" stroke="#132e65" stroke-width="1.5"></path><path d="M517.44 703.18L376.52 556.14" stroke="#132e65" stroke-width="1.5"></path><path d="M517.44 703.18L686.86 546.95" stroke="#132e65" stroke-width="1.5"></path><path d="M517.44 703.18L793.12 659.45" stroke="#132e65" stroke-width="1.5"></path><path d="M691.34 222.44L691.34 222.44" stroke="#132e65" stroke-width="1.5"></path><path d="M691.34 222.44L649.54 342.14" stroke="#132e65" stroke-width="1.5"></path><path d="M691.34 222.44L819.45 231.11" stroke="#132e65" stroke-width="1.5"></path><path d="M691.34 222.44L811.4 411.1" stroke="#132e65" stroke-width="1.5"></path><path d="M649.54 342.14L649.54 342.14" stroke="#132e65" stroke-width="1.5"></path><path d="M649.54 342.14L811.4 411.1" stroke="#132e65" stroke-width="1.5"></path><path d="M649.54 342.14L819.45 231.11" stroke="#132e65" stroke-width="1.5"></path><path d="M686.86 546.95L686.86 546.95" stroke="#132e65" stroke-width="1.5"></path><path d="M686.86 546.95L820.69 489.75" stroke="#132e65" stroke-width="1.5"></path><path d="M686.86 546.95L793.12 659.45" stroke="#132e65" stroke-width="1.5"></path><path d="M686.86 546.95L811.4 411.1" stroke="#132e65" stroke-width="1.5"></path><path d="M859.6 47.06L859.6 47.06" stroke="#132e65" stroke-width="1.5"></path><path d="M859.6 47.06L945.04 50.61" stroke="#132e65" stroke-width="1.5"></path><path d="M819.45 231.11L819.45 231.11" stroke="#132e65" stroke-width="1.5"></path><path d="M819.45 231.11L811.4 411.1" stroke="#132e65" stroke-width="1.5"></path><path d="M819.45 231.11L1004.2 248.38" stroke="#132e65" stroke-width="1.5"></path><path d="M819.45 231.11L970.17 342.43" stroke="#132e65" stroke-width="1.5"></path><path d="M811.4 411.1L811.4 411.1" stroke="#132e65" stroke-width="1.5"></path><path d="M811.4 411.1L820.69 489.75" stroke="#132e65" stroke-width="1.5"></path><path d="M811.4 411.1L970.17 342.43" stroke="#132e65" stroke-width="1.5"></path><path d="M820.69 489.75L820.69 489.75" stroke="#132e65" stroke-width="1.5"></path><path d="M820.69 489.75L976.16 508.57" stroke="#132e65" stroke-width="1.5"></path><path d="M820.69 489.75L793.12 659.45" stroke="#132e65" stroke-width="1.5"></path><path d="M793.12 659.45L793.12 659.45" stroke="#132e65" stroke-width="1.5"></path><path d="M793.12 659.45L962.52 643.88" stroke="#132e65" stroke-width="1.5"></path><path d="M1003.47 -101.26L1003.47 -101.26" stroke="#132e65" stroke-width="1.5"></path><path d="M1003.47 -101.26L1093.78 -111.17" stroke="#132e65" stroke-width="1.5"></path><path d="M1003.47 -101.26L945.04 50.61" stroke="#132e65" stroke-width="1.5"></path><path d="M1003.47 -101.26L859.6 47.06" stroke="#132e65" stroke-width="1.5"></path><path d="M1003.47 -101.26L1139.24 62.38" stroke="#132e65" stroke-width="1.5"></path><path d="M1003.47 -101.26L1285.32 -97.36" stroke="#132e65" stroke-width="1.5"></path><path d="M945.04 50.61L945.04 50.61" stroke="#132e65" stroke-width="1.5"></path><path d="M945.04 50.61L1139.24 62.38" stroke="#132e65" stroke-width="1.5"></path><path d="M1004.2 248.38L1004.2 248.38" stroke="#132e65" stroke-width="1.5"></path><path d="M1004.2 248.38L1099.02 262.25" stroke="#132e65" stroke-width="1.5"></path><path d="M1004.2 248.38L970.17 342.43" stroke="#132e65" stroke-width="1.5"></path><path d="M1004.2 248.38L1152.47 367.1" stroke="#132e65" stroke-width="1.5"></path><path d="M970.17 342.43L970.17 342.43" stroke="#132e65" stroke-width="1.5"></path><path d="M970.17 342.43L1099.02 262.25" stroke="#132e65" stroke-width="1.5"></path><path d="M976.16 508.57L976.16 508.57" stroke="#132e65" stroke-width="1.5"></path><path d="M976.16 508.57L1105.19 517.88" stroke="#132e65" stroke-width="1.5"></path><path d="M976.16 508.57L962.52 643.88" stroke="#132e65" stroke-width="1.5"></path><path d="M962.52 643.88L962.52 643.88" stroke="#132e65" stroke-width="1.5"></path><path d="M1093.78 -111.17L1093.78 -111.17" stroke="#132e65" stroke-width="1.5"></path><path d="M1093.78 -111.17L1139.24 62.38" stroke="#132e65" stroke-width="1.5"></path><path d="M1139.24 62.38L1139.24 62.38" stroke="#132e65" stroke-width="1.5"></path><path d="M1139.24 62.38L1305.26 58.75" stroke="#132e65" stroke-width="1.5"></path><path d="M1139.24 62.38L1099.02 262.25" stroke="#132e65" stroke-width="1.5"></path><path d="M1139.24 62.38L1278.11 223.16" stroke="#132e65" stroke-width="1.5"></path><path d="M1099.02 262.25L1099.02 262.25" stroke="#132e65" stroke-width="1.5"></path><path d="M1099.02 262.25L1152.47 367.1" stroke="#132e65" stroke-width="1.5"></path><path d="M1152.47 367.1L1152.47 367.1" stroke="#132e65" stroke-width="1.5"></path><path d="M1152.47 367.1L1292.48 350.63" stroke="#132e65" stroke-width="1.5"></path><path d="M1152.47 367.1L1105.19 517.88" stroke="#132e65" stroke-width="1.5"></path><path d="M1152.47 367.1L970.17 342.43" stroke="#132e65" stroke-width="1.5"></path><path d="M1105.19 517.88L1105.19 517.88" stroke="#132e65" stroke-width="1.5"></path><path d="M1105.19 517.88L1135.35 645" stroke="#132e65" stroke-width="1.5"></path><path d="M1105.19 517.88L1249.47 561.53" stroke="#132e65" stroke-width="1.5"></path><path d="M1105.19 517.88L962.52 643.88" stroke="#132e65" stroke-width="1.5"></path><path d="M1105.19 517.88L970.17 342.43" stroke="#132e65" stroke-width="1.5"></path><path d="M1135.35 645L1135.35 645" stroke="#132e65" stroke-width="1.5"></path><path d="M1135.35 645L1249.47 561.53" stroke="#132e65" stroke-width="1.5"></path><path d="M1135.35 645L1304.35 666.69" stroke="#132e65" stroke-width="1.5"></path><path d="M1285.32 -97.36L1285.32 -97.36" stroke="#132e65" stroke-width="1.5"></path><path d="M1285.32 -97.36L1412.17 -52.46" stroke="#132e65" stroke-width="1.5"></path><path d="M1285.32 -97.36L1305.26 58.75" stroke="#132e65" stroke-width="1.5"></path><path d="M1305.26 58.75L1305.26 58.75" stroke="#132e65" stroke-width="1.5"></path><path d="M1305.26 58.75L1431.83 90.16" stroke="#132e65" stroke-width="1.5"></path><path d="M1305.26 58.75L1412.17 -52.46" stroke="#132e65" stroke-width="1.5"></path><path d="M1278.11 223.16L1278.11 223.16" stroke="#132e65" stroke-width="1.5"></path><path d="M1278.11 223.16L1292.48 350.63" stroke="#132e65" stroke-width="1.5"></path><path d="M1278.11 223.16L1409.16 192.01" stroke="#132e65" stroke-width="1.5"></path><path d="M1278.11 223.16L1305.26 58.75" stroke="#132e65" stroke-width="1.5"></path><path d="M1292.48 350.63L1292.48 350.63" stroke="#132e65" stroke-width="1.5"></path><path d="M1292.48 350.63L1399.41 343.67" stroke="#132e65" stroke-width="1.5"></path><path d="M1292.48 350.63L1409.16 192.01" stroke="#132e65" stroke-width="1.5"></path><path d="M1292.48 350.63L1099.02 262.25" stroke="#132e65" stroke-width="1.5"></path><path d="M1292.48 350.63L1249.47 561.53" stroke="#132e65" stroke-width="1.5"></path><path d="M1249.47 561.53L1249.47 561.53" stroke="#132e65" stroke-width="1.5"></path><path d="M1249.47 561.53L1304.35 666.69" stroke="#132e65" stroke-width="1.5"></path><path d="M1249.47 561.53L1448.1 529.69" stroke="#132e65" stroke-width="1.5"></path><path d="M1304.35 666.69L1304.35 666.69" stroke="#132e65" stroke-width="1.5"></path><path d="M1304.35 666.69L1427.8 708.17" stroke="#132e65" stroke-width="1.5"></path><path d="M1304.35 666.69L1448.1 529.69" stroke="#132e65" stroke-width="1.5"></path><path d="M1304.35 666.69L1105.19 517.88" stroke="#132e65" stroke-width="1.5"></path><path d="M1412.17 -52.46L1412.17 -52.46" stroke="#132e65" stroke-width="1.5"></path><path d="M1412.17 -52.46L1431.83 90.16" stroke="#132e65" stroke-width="1.5"></path><path d="M1431.83 90.16L1431.83 90.16" stroke="#132e65" stroke-width="1.5"></path><path d="M1431.83 90.16L1409.16 192.01" stroke="#132e65" stroke-width="1.5"></path><path d="M1431.83 90.16L1565.81 57.9" stroke="#132e65" stroke-width="1.5"></path><path d="M1409.16 192.01L1409.16 192.01" stroke="#132e65" stroke-width="1.5"></path><path d="M1399.41 343.67L1399.41 343.67" stroke="#132e65" stroke-width="1.5"></path><path d="M1399.41 343.67L1409.16 192.01" stroke="#132e65" stroke-width="1.5"></path><path d="M1399.41 343.67L1553.56 356.58" stroke="#132e65" stroke-width="1.5"></path><path d="M1448.1 529.69L1448.1 529.69" stroke="#132e65" stroke-width="1.5"></path><path d="M1448.1 529.69L1575.08 529.26" stroke="#132e65" stroke-width="1.5"></path><path d="M1448.1 529.69L1427.8 708.17" stroke="#132e65" stroke-width="1.5"></path><path d="M1448.1 529.69L1399.41 343.67" stroke="#132e65" stroke-width="1.5"></path><path d="M1427.8 708.17L1427.8 708.17" stroke="#132e65" stroke-width="1.5"></path><path d="M1427.8 708.17L1249.47 561.53" stroke="#132e65" stroke-width="1.5"></path><path d="M1427.8 708.17L1575.08 529.26" stroke="#132e65" stroke-width="1.5"></path><path d="M1427.8 708.17L1135.35 645" stroke="#132e65" stroke-width="1.5"></path><path d="M1556.91 -56.67L1556.91 -56.67" stroke="#132e65" stroke-width="1.5"></path><path d="M1556.91 -56.67L1565.81 57.9" stroke="#132e65" stroke-width="1.5"></path><path d="M1556.91 -56.67L1412.17 -52.46" stroke="#132e65" stroke-width="1.5"></path><path d="M1556.91 -56.67L1431.83 90.16" stroke="#132e65" stroke-width="1.5"></path><path d="M1556.91 -56.67L1551.72 195.85" stroke="#132e65" stroke-width="1.5"></path><path d="M1556.91 -56.67L1285.32 -97.36" stroke="#132e65" stroke-width="1.5"></path><path d="M1556.91 -56.67L1305.26 58.75" stroke="#132e65" stroke-width="1.5"></path><path d="M1565.81 57.9L1565.81 57.9" stroke="#132e65" stroke-width="1.5"></path><path d="M1565.81 57.9L1551.72 195.85" stroke="#132e65" stroke-width="1.5"></path><path d="M1565.81 57.9L1412.17 -52.46" stroke="#132e65" stroke-width="1.5"></path><path d="M1565.81 57.9L1409.16 192.01" stroke="#132e65" stroke-width="1.5"></path><path d="M1551.72 195.85L1551.72 195.85" stroke="#132e65" stroke-width="1.5"></path><path d="M1551.72 195.85L1409.16 192.01" stroke="#132e65" stroke-width="1.5"></path><path d="M1553.56 356.58L1553.56 356.58" stroke="#132e65" stroke-width="1.5"></path><path d="M1553.56 356.58L1551.72 195.85" stroke="#132e65" stroke-width="1.5"></path><path d="M1553.56 356.58L1575.08 529.26" stroke="#132e65" stroke-width="1.5"></path><path d="M1575.08 529.26L1575.08 529.26" stroke="#132e65" stroke-width="1.5"></path><path d="M1575.08 529.26L1399.41 343.67" stroke="#132e65" stroke-width="1.5"></path><circle r="5" cx="-73.81" cy="386.07" fill="#132e65"></circle><circle r="5" cx="-57.52" cy="507.31" fill="#132e65"></circle><circle r="5" cx="-89.07" cy="645.38" fill="#132e65"></circle><circle r="5" cx="103.48" cy="412.29" fill="#132e65"></circle><circle r="5" cx="40.02" cy="517.06" fill="#132e65"></circle><circle r="5" cx="225.7" cy="347.84" fill="#132e65"></circle><circle r="5" cx="203.9" cy="521.94" fill="#132e65"></circle><circle r="5" cx="237.22" cy="694.2" fill="#132e65"></circle><circle r="5" cx="362.02" cy="385.34" fill="#132e65"></circle><circle r="5" cx="376.52" cy="556.14" fill="#132e65"></circle><circle r="5" cx="373.34" cy="704.86" fill="#132e65"></circle><circle r="5" cx="492.15" cy="360.79" fill="#132e65"></circle><circle r="5" cx="534.03" cy="525.31" fill="#132e65"></circle><circle r="5" cx="517.44" cy="703.18" fill="#132e65"></circle><circle r="5" cx="691.34" cy="222.44" fill="#132e65"></circle><circle r="5" cx="649.54" cy="342.14" fill="#132e65"></circle><circle r="5" cx="686.86" cy="546.95" fill="#132e65"></circle><circle r="5" cx="859.6" cy="47.06" fill="#132e65"></circle><circle r="5" cx="819.45" cy="231.11" fill="#132e65"></circle><circle r="5" cx="811.4" cy="411.1" fill="#132e65"></circle><circle r="5" cx="820.69" cy="489.75" fill="#132e65"></circle><circle r="5" cx="793.12" cy="659.45" fill="#132e65"></circle><circle r="5" cx="1003.47" cy="-101.26" fill="#132e65"></circle><circle r="5" cx="945.04" cy="50.61" fill="#132e65"></circle><circle r="5" cx="1004.2" cy="248.38" fill="#132e65"></circle><circle r="5" cx="970.17" cy="342.43" fill="#132e65"></circle><circle r="5" cx="976.16" cy="508.57" fill="#132e65"></circle><circle r="5" cx="962.52" cy="643.88" fill="#132e65"></circle><circle r="5" cx="1093.78" cy="-111.17" fill="#132e65"></circle><circle r="5" cx="1139.24" cy="62.38" fill="#132e65"></circle><circle r="5" cx="1099.02" cy="262.25" fill="#132e65"></circle><circle r="5" cx="1152.47" cy="367.1" fill="#132e65"></circle><circle r="5" cx="1105.19" cy="517.88" fill="#132e65"></circle><circle r="5" cx="1135.35" cy="645" fill="#132e65"></circle><circle r="5" cx="1285.32" cy="-97.36" fill="#132e65"></circle><circle r="5" cx="1305.26" cy="58.75" fill="#132e65"></circle><circle r="5" cx="1278.11" cy="223.16" fill="#132e65"></circle><circle r="5" cx="1292.48" cy="350.63" fill="#132e65"></circle><circle r="5" cx="1249.47" cy="561.53" fill="#132e65"></circle><circle r="5" cx="1304.35" cy="666.69" fill="#132e65"></circle><circle r="5" cx="1412.17" cy="-52.46" fill="#132e65"></circle><circle r="5" cx="1431.83" cy="90.16" fill="#132e65"></circle><circle r="5" cx="1409.16" cy="192.01" fill="#132e65"></circle><circle r="5" cx="1399.41" cy="343.67" fill="#132e65"></circle><circle r="5" cx="1448.1" cy="529.69" fill="#132e65"></circle><circle r="5" cx="1427.8" cy="708.17" fill="#132e65"></circle><circle r="5" cx="1556.91" cy="-56.67" fill="#132e65"></circle><circle r="5" cx="1565.81" cy="57.9" fill="#132e65"></circle><circle r="5" cx="1551.72" cy="195.85" fill="#132e65"></circle><circle r="5" cx="1553.56" cy="356.58" fill="#132e65"></circle><circle r="5" cx="1575.08" cy="529.26" fill="#132e65"></circle><path d="M212.16 707.16L212.16 707.16" stroke="hsl(228.5, 77.2%, 51.5%)" stroke-width="1.5"></path><path d="M212.16 707.16L344.62 704.29" stroke="hsl(228.5, 77.2%, 51.5%)" stroke-width="1.5"></path><path d="M212.16 707.16L73.44 681.53" stroke="hsl(228.5, 77.2%, 51.5%)" stroke-width="1.5"></path><path d="M698.58 389.9L698.58 389.9" stroke="hsl(228.5, 77.2%, 51.5%)" stroke-width="1.5"></path><path d="M698.58 389.9L829.26 409.58" stroke="hsl(228.5, 77.2%, 51.5%)" stroke-width="1.5"></path><path d="M698.58 389.9L691.03 539.99" stroke="hsl(228.5, 77.2%, 51.5%)" stroke-width="1.5"></path><path d="M698.58 389.9L839.33 541.16" stroke="hsl(228.5, 77.2%, 51.5%)" stroke-width="1.5"></path><path d="M698.58 389.9L971.27 361.71" stroke="hsl(228.5, 77.2%, 51.5%)" stroke-width="1.5"></path><path d="M839.33 541.16L839.33 541.16" stroke="hsl(228.5, 77.2%, 51.5%)" stroke-width="1.5"></path><path d="M839.33 541.16L958.66 509.5" stroke="hsl(228.5, 77.2%, 51.5%)" stroke-width="1.5"></path><path d="M839.33 541.16L829.26 409.58" stroke="hsl(228.5, 77.2%, 51.5%)" stroke-width="1.5"></path><path d="M839.33 541.16L787.78 679.64" stroke="hsl(228.5, 77.2%, 51.5%)" stroke-width="1.5"></path><path d="M1104.11 209.74L1104.11 209.74" stroke="hsl(228.5, 77.2%, 51.5%)" stroke-width="1.5"></path><path d="M1104.11 209.74L1262.91 222.5" stroke="hsl(228.5, 77.2%, 51.5%)" stroke-width="1.5"></path><path d="M1104.11 209.74L1112.09 373.03" stroke="hsl(228.5, 77.2%, 51.5%)" stroke-width="1.5"></path><path d="M1104.11 209.74L1250.06 96.33" stroke="hsl(228.5, 77.2%, 51.5%)" stroke-width="1.5"></path><path d="M1104.11 209.74L971.27 361.71" stroke="hsl(228.5, 77.2%, 51.5%)" stroke-width="1.5"></path><path d="M1112.09 373.03L1112.09 373.03" stroke="hsl(228.5, 77.2%, 51.5%)" stroke-width="1.5"></path><path d="M1112.09 373.03L971.27 361.71" stroke="hsl(228.5, 77.2%, 51.5%)" stroke-width="1.5"></path><path d="M1112.09 373.03L1143.79 514.45" stroke="hsl(228.5, 77.2%, 51.5%)" stroke-width="1.5"></path><path d="M1299.18 -49.95L1299.18 -49.95" stroke="hsl(228.5, 77.2%, 51.5%)" stroke-width="1.5"></path><path d="M1299.18 -49.95L1404.36 -68.58" stroke="hsl(228.5, 77.2%, 51.5%)" stroke-width="1.5"></path><path d="M1299.18 -49.95L1250.06 96.33" stroke="hsl(228.5, 77.2%, 51.5%)" stroke-width="1.5"></path><path d="M1299.18 -49.95L1393.82 76.01" stroke="hsl(228.5, 77.2%, 51.5%)" stroke-width="1.5"></path><path d="M1312.38 399.76L1312.38 399.76" stroke="hsl(228.5, 77.2%, 51.5%)" stroke-width="1.5"></path><path d="M1312.38 399.76L1304.92 549.61" stroke="hsl(228.5, 77.2%, 51.5%)" stroke-width="1.5"></path><path d="M1312.38 399.76L1424.73 500.33" stroke="hsl(228.5, 77.2%, 51.5%)" stroke-width="1.5"></path><path d="M1453.35 338.45L1453.35 338.45" stroke="hsl(228.5, 77.2%, 51.5%)" stroke-width="1.5"></path><path d="M1453.35 338.45L1459.07 245.48" stroke="hsl(228.5, 77.2%, 51.5%)" stroke-width="1.5"></path><path d="M1453.35 338.45L1565.15 339.28" stroke="hsl(228.5, 77.2%, 51.5%)" stroke-width="1.5"></path><path d="M1453.35 338.45L1312.38 399.76" stroke="hsl(228.5, 77.2%, 51.5%)" stroke-width="1.5"></path><path d="M1453.35 338.45L1424.73 500.33" stroke="hsl(228.5, 77.2%, 51.5%)" stroke-width="1.5"></path><path d="M1540.1 197.33L1540.1 197.33" stroke="hsl(228.5, 77.2%, 51.5%)" stroke-width="1.5"></path><path d="M1540.1 197.33L1558.31 106.48" stroke="hsl(228.5, 77.2%, 51.5%)" stroke-width="1.5"></path><path d="M1540.1 197.33L1459.07 245.48" stroke="hsl(228.5, 77.2%, 51.5%)" stroke-width="1.5"></path><path d="M1540.1 197.33L1565.15 339.28" stroke="hsl(228.5, 77.2%, 51.5%)" stroke-width="1.5"></path><path d="M-64.83 668.3L-64.83 668.3" stroke="hsl(228.5, 77.2%, 51.5%)" stroke-width="1.5"></path><path d="M-64.83 668.3L73.44 681.53" stroke="hsl(228.5, 77.2%, 51.5%)" stroke-width="1.5"></path><path d="M-64.83 668.3L81.07 522.57" stroke="hsl(228.5, 77.2%, 51.5%)" stroke-width="1.5"></path><path d="M-64.83 668.3L212.16 707.16" stroke="hsl(228.5, 77.2%, 51.5%)" stroke-width="1.5"></path><path d="M-64.83 668.3L210.32 550.27" stroke="hsl(228.5, 77.2%, 51.5%)" stroke-width="1.5"></path><path d="M-64.83 668.3L344.62 704.29" stroke="hsl(228.5, 77.2%, 51.5%)" stroke-width="1.5"></path><path d="M-64.83 668.3L360.08 497.68" stroke="hsl(228.5, 77.2%, 51.5%)" stroke-width="1.5"></path><path d="M81.07 522.57L81.07 522.57" stroke="hsl(228.5, 77.2%, 51.5%)" stroke-width="1.5"></path><path d="M81.07 522.57L210.32 550.27" stroke="hsl(228.5, 77.2%, 51.5%)" stroke-width="1.5"></path><path d="M81.07 522.57L73.44 681.53" stroke="hsl(228.5, 77.2%, 51.5%)" stroke-width="1.5"></path><path d="M73.44 681.53L73.44 681.53" stroke="hsl(228.5, 77.2%, 51.5%)" stroke-width="1.5"></path><path d="M73.44 681.53L210.32 550.27" stroke="hsl(228.5, 77.2%, 51.5%)" stroke-width="1.5"></path><path d="M73.44 681.53L344.62 704.29" stroke="hsl(228.5, 77.2%, 51.5%)" stroke-width="1.5"></path><path d="M73.44 681.53L360.08 497.68" stroke="hsl(228.5, 77.2%, 51.5%)" stroke-width="1.5"></path><path d="M210.32 550.27L210.32 550.27" stroke="hsl(228.5, 77.2%, 51.5%)" stroke-width="1.5"></path><path d="M210.32 550.27L212.16 707.16" stroke="hsl(228.5, 77.2%, 51.5%)" stroke-width="1.5"></path><path d="M210.32 550.27L360.08 497.68" stroke="hsl(228.5, 77.2%, 51.5%)" stroke-width="1.5"></path><path d="M210.32 550.27L344.62 704.29" stroke="hsl(228.5, 77.2%, 51.5%)" stroke-width="1.5"></path><path d="M360.08 497.68L360.08 497.68" stroke="hsl(228.5, 77.2%, 51.5%)" stroke-width="1.5"></path><path d="M360.08 497.68L344.62 704.29" stroke="hsl(228.5, 77.2%, 51.5%)" stroke-width="1.5"></path><path d="M360.08 497.68L549.12 670.87" stroke="hsl(228.5, 77.2%, 51.5%)" stroke-width="1.5"></path><path d="M360.08 497.68L212.16 707.16" stroke="hsl(228.5, 77.2%, 51.5%)" stroke-width="1.5"></path><path d="M360.08 497.68L81.07 522.57" stroke="hsl(228.5, 77.2%, 51.5%)" stroke-width="1.5"></path><path d="M360.08 497.68L691.03 539.99" stroke="hsl(228.5, 77.2%, 51.5%)" stroke-width="1.5"></path><path d="M344.62 704.29L344.62 704.29" stroke="hsl(228.5, 77.2%, 51.5%)" stroke-width="1.5"></path><path d="M549.12 670.87L549.12 670.87" stroke="hsl(228.5, 77.2%, 51.5%)" stroke-width="1.5"></path><path d="M549.12 670.87L691.03 539.99" stroke="hsl(228.5, 77.2%, 51.5%)" stroke-width="1.5"></path><path d="M549.12 670.87L344.62 704.29" stroke="hsl(228.5, 77.2%, 51.5%)" stroke-width="1.5"></path><path d="M549.12 670.87L787.78 679.64" stroke="hsl(228.5, 77.2%, 51.5%)" stroke-width="1.5"></path><path d="M549.12 670.87L839.33 541.16" stroke="hsl(228.5, 77.2%, 51.5%)" stroke-width="1.5"></path><path d="M691.03 539.99L691.03 539.99" stroke="hsl(228.5, 77.2%, 51.5%)" stroke-width="1.5"></path><path d="M691.03 539.99L839.33 541.16" stroke="hsl(228.5, 77.2%, 51.5%)" stroke-width="1.5"></path><path d="M691.03 539.99L787.78 679.64" stroke="hsl(228.5, 77.2%, 51.5%)" stroke-width="1.5"></path><path d="M691.03 539.99L829.26 409.58" stroke="hsl(228.5, 77.2%, 51.5%)" stroke-width="1.5"></path><path d="M829.26 409.58L829.26 409.58" stroke="hsl(228.5, 77.2%, 51.5%)" stroke-width="1.5"></path><path d="M829.26 409.58L971.27 361.71" stroke="hsl(228.5, 77.2%, 51.5%)" stroke-width="1.5"></path><path d="M829.26 409.58L958.66 509.5" stroke="hsl(228.5, 77.2%, 51.5%)" stroke-width="1.5"></path><path d="M829.26 409.58L787.78 679.64" stroke="hsl(228.5, 77.2%, 51.5%)" stroke-width="1.5"></path><path d="M787.78 679.64L787.78 679.64" stroke="hsl(228.5, 77.2%, 51.5%)" stroke-width="1.5"></path><path d="M971.27 361.71L971.27 361.71" stroke="hsl(228.5, 77.2%, 51.5%)" stroke-width="1.5"></path><path d="M971.27 361.71L958.66 509.5" stroke="hsl(228.5, 77.2%, 51.5%)" stroke-width="1.5"></path><path d="M958.66 509.5L958.66 509.5" stroke="hsl(228.5, 77.2%, 51.5%)" stroke-width="1.5"></path><path d="M973.5 685.45L973.5 685.45" stroke="hsl(228.5, 77.2%, 51.5%)" stroke-width="1.5"></path><path d="M973.5 685.45L1114.11 708.92" stroke="hsl(228.5, 77.2%, 51.5%)" stroke-width="1.5"></path><path d="M973.5 685.45L958.66 509.5" stroke="hsl(228.5, 77.2%, 51.5%)" stroke-width="1.5"></path><path d="M1143.79 514.45L1143.79 514.45" stroke="hsl(228.5, 77.2%, 51.5%)" stroke-width="1.5"></path><path d="M1143.79 514.45L1304.92 549.61" stroke="hsl(228.5, 77.2%, 51.5%)" stroke-width="1.5"></path><path d="M1143.79 514.45L958.66 509.5" stroke="hsl(228.5, 77.2%, 51.5%)" stroke-width="1.5"></path><path d="M1143.79 514.45L1114.11 708.92" stroke="hsl(228.5, 77.2%, 51.5%)" stroke-width="1.5"></path><path d="M1143.79 514.45L1312.38 399.76" stroke="hsl(228.5, 77.2%, 51.5%)" stroke-width="1.5"></path><path d="M1143.79 514.45L1271.27 677.76" stroke="hsl(228.5, 77.2%, 51.5%)" stroke-width="1.5"></path><path d="M1114.11 708.92L1114.11 708.92" stroke="hsl(228.5, 77.2%, 51.5%)" stroke-width="1.5"></path><path d="M1114.11 708.92L1271.27 677.76" stroke="hsl(228.5, 77.2%, 51.5%)" stroke-width="1.5"></path><path d="M1114.11 708.92L1304.92 549.61" stroke="hsl(228.5, 77.2%, 51.5%)" stroke-width="1.5"></path><path d="M1250.06 96.33L1250.06 96.33" stroke="hsl(228.5, 77.2%, 51.5%)" stroke-width="1.5"></path><path d="M1250.06 96.33L1262.91 222.5" stroke="hsl(228.5, 77.2%, 51.5%)" stroke-width="1.5"></path><path d="M1250.06 96.33L1393.82 76.01" stroke="hsl(228.5, 77.2%, 51.5%)" stroke-width="1.5"></path><path d="M1262.91 222.5L1262.91 222.5" stroke="hsl(228.5, 77.2%, 51.5%)" stroke-width="1.5"></path><path d="M1262.91 222.5L1312.38 399.76" stroke="hsl(228.5, 77.2%, 51.5%)" stroke-width="1.5"></path><path d="M1262.91 222.5L1393.82 76.01" stroke="hsl(228.5, 77.2%, 51.5%)" stroke-width="1.5"></path><path d="M1262.91 222.5L1459.07 245.48" stroke="hsl(228.5, 77.2%, 51.5%)" stroke-width="1.5"></path><path d="M1304.92 549.61L1304.92 549.61" stroke="hsl(228.5, 77.2%, 51.5%)" stroke-width="1.5"></path><path d="M1304.92 549.61L1394.06 637.74" stroke="hsl(228.5, 77.2%, 51.5%)" stroke-width="1.5"></path><path d="M1304.92 549.61L1424.73 500.33" stroke="hsl(228.5, 77.2%, 51.5%)" stroke-width="1.5"></path><path d="M1304.92 549.61L1271.27 677.76" stroke="hsl(228.5, 77.2%, 51.5%)" stroke-width="1.5"></path><path d="M1271.27 677.76L1271.27 677.76" stroke="hsl(228.5, 77.2%, 51.5%)" stroke-width="1.5"></path><path d="M1271.27 677.76L1394.06 637.74" stroke="hsl(228.5, 77.2%, 51.5%)" stroke-width="1.5"></path><path d="M1271.27 677.76L1424.73 500.33" stroke="hsl(228.5, 77.2%, 51.5%)" stroke-width="1.5"></path><path d="M1271.27 677.76L1312.38 399.76" stroke="hsl(228.5, 77.2%, 51.5%)" stroke-width="1.5"></path><path d="M1404.36 -68.58L1404.36 -68.58" stroke="hsl(228.5, 77.2%, 51.5%)" stroke-width="1.5"></path><path d="M1404.36 -68.58L1393.82 76.01" stroke="hsl(228.5, 77.2%, 51.5%)" stroke-width="1.5"></path><path d="M1404.36 -68.58L1250.06 96.33" stroke="hsl(228.5, 77.2%, 51.5%)" stroke-width="1.5"></path><path d="M1404.36 -68.58L1558.31 106.48" stroke="hsl(228.5, 77.2%, 51.5%)" stroke-width="1.5"></path><path d="M1404.36 -68.58L1540.1 197.33" stroke="hsl(228.5, 77.2%, 51.5%)" stroke-width="1.5"></path><path d="M1393.82 76.01L1393.82 76.01" stroke="hsl(228.5, 77.2%, 51.5%)" stroke-width="1.5"></path><path d="M1459.07 245.48L1459.07 245.48" stroke="hsl(228.5, 77.2%, 51.5%)" stroke-width="1.5"></path><path d="M1459.07 245.48L1565.15 339.28" stroke="hsl(228.5, 77.2%, 51.5%)" stroke-width="1.5"></path><path d="M1459.07 245.48L1558.31 106.48" stroke="hsl(228.5, 77.2%, 51.5%)" stroke-width="1.5"></path><path d="M1459.07 245.48L1393.82 76.01" stroke="hsl(228.5, 77.2%, 51.5%)" stroke-width="1.5"></path><path d="M1424.73 500.33L1424.73 500.33" stroke="hsl(228.5, 77.2%, 51.5%)" stroke-width="1.5"></path><path d="M1424.73 500.33L1540.5 535.29" stroke="hsl(228.5, 77.2%, 51.5%)" stroke-width="1.5"></path><path d="M1424.73 500.33L1394.06 637.74" stroke="hsl(228.5, 77.2%, 51.5%)" stroke-width="1.5"></path><path d="M1394.06 637.74L1394.06 637.74" stroke="hsl(228.5, 77.2%, 51.5%)" stroke-width="1.5"></path><path d="M1394.06 637.74L1540.5 535.29" stroke="hsl(228.5, 77.2%, 51.5%)" stroke-width="1.5"></path><path d="M1394.06 637.74L1609.75 667.81" stroke="hsl(228.5, 77.2%, 51.5%)" stroke-width="1.5"></path><path d="M1558.31 106.48L1558.31 106.48" stroke="hsl(228.5, 77.2%, 51.5%)" stroke-width="1.5"></path><path d="M1558.31 106.48L1393.82 76.01" stroke="hsl(228.5, 77.2%, 51.5%)" stroke-width="1.5"></path><path d="M1565.15 339.28L1565.15 339.28" stroke="hsl(228.5, 77.2%, 51.5%)" stroke-width="1.5"></path><path d="M1540.5 535.29L1540.5 535.29" stroke="hsl(228.5, 77.2%, 51.5%)" stroke-width="1.5"></path><path d="M1540.5 535.29L1609.75 667.81" stroke="hsl(228.5, 77.2%, 51.5%)" stroke-width="1.5"></path><path d="M1540.5 535.29L1565.15 339.28" stroke="hsl(228.5, 77.2%, 51.5%)" stroke-width="1.5"></path><path d="M1540.5 535.29L1453.35 338.45" stroke="hsl(228.5, 77.2%, 51.5%)" stroke-width="1.5"></path><path d="M1609.75 667.81L1609.75 667.81" stroke="hsl(228.5, 77.2%, 51.5%)" stroke-width="1.5"></path><path d="M1609.75 667.81L1424.73 500.33" stroke="hsl(228.5, 77.2%, 51.5%)" stroke-width="1.5"></path><circle r="25" cx="212.16" cy="707.16" fill="url(&quot;#SvgjsRadialGradient1001&quot;)"></circle><circle r="25" cx="698.58" cy="389.9" fill="url(&quot;#SvgjsRadialGradient1001&quot;)"></circle><circle r="25" cx="839.33" cy="541.16" fill="url(&quot;#SvgjsRadialGradient1001&quot;)"></circle><circle r="25" cx="1104.11" cy="209.74" fill="url(&quot;#SvgjsRadialGradient1001&quot;)"></circle><circle r="25" cx="1112.09" cy="373.03" fill="url(&quot;#SvgjsRadialGradient1001&quot;)"></circle><circle r="25" cx="1299.18" cy="-49.95" fill="url(&quot;#SvgjsRadialGradient1001&quot;)"></circle><circle r="25" cx="1312.38" cy="399.76" fill="url(&quot;#SvgjsRadialGradient1001&quot;)"></circle><circle r="25" cx="1453.35" cy="338.45" fill="url(&quot;#SvgjsRadialGradient1001&quot;)"></circle><circle r="25" cx="1540.1" cy="197.33" fill="url(&quot;#SvgjsRadialGradient1001&quot;)"></circle><circle r="5" cx="-64.83" cy="668.3" fill="#8b9ad9"></circle><circle r="5" cx="81.07" cy="522.57" fill="#8b9ad9"></circle><circle r="5" cx="73.44" cy="681.53" fill="#8b9ad9"></circle><circle r="5" cx="210.32" cy="550.27" fill="#8b9ad9"></circle><circle r="5" cx="360.08" cy="497.68" fill="#8b9ad9"></circle><circle r="5" cx="344.62" cy="704.29" fill="#8b9ad9"></circle><circle r="5" cx="549.12" cy="670.87" fill="#8b9ad9"></circle><circle r="5" cx="691.03" cy="539.99" fill="#8b9ad9"></circle><circle r="5" cx="829.26" cy="409.58" fill="#8b9ad9"></circle><circle r="5" cx="787.78" cy="679.64" fill="#8b9ad9"></circle><circle r="5" cx="971.27" cy="361.71" fill="#8b9ad9"></circle><circle r="5" cx="958.66" cy="509.5" fill="#8b9ad9"></circle><circle r="5" cx="973.5" cy="685.45" fill="#8b9ad9"></circle><circle r="5" cx="1143.79" cy="514.45" fill="#8b9ad9"></circle><circle r="5" cx="1114.11" cy="708.92" fill="#8b9ad9"></circle><circle r="5" cx="1250.06" cy="96.33" fill="#8b9ad9"></circle><circle r="5" cx="1262.91" cy="222.5" fill="#8b9ad9"></circle><circle r="5" cx="1304.92" cy="549.61" fill="#8b9ad9"></circle><circle r="5" cx="1271.27" cy="677.76" fill="#8b9ad9"></circle><circle r="5" cx="1404.36" cy="-68.58" fill="#8b9ad9"></circle><circle r="5" cx="1393.82" cy="76.01" fill="#8b9ad9"></circle><circle r="5" cx="1459.07" cy="245.48" fill="#8b9ad9"></circle><circle r="5" cx="1424.73" cy="500.33" fill="#8b9ad9"></circle><circle r="5" cx="1394.06" cy="637.74" fill="#8b9ad9"></circle><circle r="5" cx="1558.31" cy="106.48" fill="#8b9ad9"></circle><circle r="5" cx="1565.15" cy="339.28" fill="#8b9ad9"></circle><circle r="5" cx="1540.5" cy="535.29" fill="#8b9ad9"></circle><circle r="5" cx="1609.75" cy="667.81" fill="#8b9ad9"></circle></g><defs><mask id="SvgjsMask1000"><rect width="1440" height="560" fill="#ffffff"></rect></mask><radialGradient id="SvgjsRadialGradient1001"><stop stop-color="#ffffff" offset="0.1"></stop><stop stop-color="#1735b3" offset="0.2"></stop><stop stop-color="rgba(23, 53, 179, 0)" offset="1"></stop></radialGradient></defs></svg>